<svg width="14" height="11" viewBox="0 0 14 11" fill="none" xmlns="http://www.w3.org/2000/svg">
<path d="M4.9 6.875H5.6V2.0625H4.9C4.51347 2.0625 4.2 2.37037 4.2 2.75V6.1875C4.2 6.56713 4.51347 6.875 4.9 6.875ZM12.6 6.1875V2.75C12.6 2.37037 12.2865 2.0625 11.9 2.0625H11.2V6.875H11.9C12.2865 6.875 12.6 6.56713 12.6 6.1875ZM13.65 8.25H2.8V0.34375C2.8 0.153828 2.64337 0 2.45 0H0.35C0.156625 0 0 0.153828 0 0.34375V1.03125C0 1.22117 0.156625 1.375 0.35 1.375H1.4V9.28125C1.4 9.47117 1.55663 9.625 1.75 9.625H3.56431C3.52516 9.73307 3.5 9.84758 3.5 9.96875C3.5 10.5383 3.97009 11 4.55 11C5.12991 11 5.6 10.5383 5.6 9.96875C5.6 9.84758 5.57484 9.73307 5.53569 9.625H9.86431C9.82516 9.73307 9.8 9.84758 9.8 9.96875C9.8 10.5383 10.2701 11 10.85 11C11.4299 11 11.9 10.5383 11.9 9.96875C11.9 9.84758 11.8748 9.73307 11.8357 9.625H13.65C13.8434 9.625 14 9.47117 14 9.28125V8.59375C14 8.40383 13.8434 8.25 13.65 8.25ZM10.5 2.0625V1.03125C10.5 0.461699 10.0299 0 9.45 0H7.35C6.77009 0 6.3 0.461699 6.3 1.03125V6.875H10.5V2.0625ZM9.45 2.0625H7.35V1.03125H9.45V2.0625Z" fill="white"/>
</svg>
